#!OML:ASF E:\Style4\Style4.ASF
:FULLY-SPECIFIED
:DEGREES
1499
root 1.93947 16.988 -0.805946 1.03129 -27.2594 3.22161
lowerback 16.53 0.232273 -3.55386
upperback 11.976 -0.37173 0.203381
thorax 3.57482 -0.515638 2.25449
lowerneck 10.8466 -3.76863 -5.61424
upperneck 0.848502 -5.70504 -0.807422
head -1.42888 -2.82254 0.945529
rclavicle 3.74709e-014 -3.18055e-015
rhumerus 19.4603 11.9507 -83.4481
rradius 131.803
rwrist 20.8521
rhand 31.5287 -11.8439
rfingers 7.12502
rthumb 55.0758 -29.9276
lclavicle 3.74709e-014 -3.18055e-015
lhumerus 28.8459 -23.7865 81.8232
lradius 130.443
lwrist -14.6338
lhand 24.5781 44.9245
lfingers 7.12502
lthumb 48.7735 66.7681
rfemur -32.6027 8.33801 9.12985
rtibia 48.0928
rfoot -17.191 -7.2519
rtoes -24.3328
lfemur -25.1631 21.2687 -29.8545
ltibia 49.2036
lfoot -31.8946 17.4843
ltoes -8.89372
1500
root 1.93565 16.985 -0.80658 1.09072 -27.2602 3.10373
lowerback 16.5243 0.1777 -3.53488
upperback 12.0085 -0.441764 0.263285
thorax 3.6189 -0.554056 2.31584
lowerneck 10.8148 -3.70462 -5.78664
upperneck 0.801081 -5.63855 -0.718949
head -1.43398 -2.79102 1.0003
rclavicle 4.32357e-014 -2.84262e-014
rhumerus 19.4575 12.1303 -83.356
rradius 131.877
rwrist 20.6818
rhand 31.5465 -12.1962
rfingers 7.12502
rthumb 55.0917 -30.2683
lclavicle 4.32357e-014 -2.84262e-014
lhumerus 28.85 -23.6799 81.8251
lradius 130.49
lwrist -14.7727
lhand 24.4626 44.867
lfingers 7.12502
lthumb 48.6673 66.7623
rfemur -32.6347 8.37161 9.25718
rtibia 48.1419
rfoot -17.1938 -7.25952
rtoes -24.1488
lfemur -25.2159 21.2939 -29.7281
ltibia 49.289
lfoot -31.9068 17.446
ltoes -8.73694
1501
root 1.93122 16.9826 -0.8078 1.16376 -27.2322 3.01314
lowerback 16.5177 0.148337 -3.47886
upperback 12.0166 -0.473162 0.277597
thorax 3.63227 -0.567366 2.30335
lowerneck 10.774 -3.69204 -5.82057
upperneck 0.807974 -5.62076 -0.63613
head -1.42213 -2.78468 1.03028
rclavicle 4.52235e-014 -2.62396e-014
rhumerus 19.394 12.1805 -83.3331
rradius 131.892
rwrist 20.6207
rhand 31.4559 -12.2899
rfingers 7.12502
rthumb 55.0109 -30.4207
lclavicle 4.52235e-014 -2.62396e-014
lhumerus 28.9138 -23.6406 81.7754
lradius 130.507
lwrist -14.8151
lhand 24.4504 45.0052
lfingers 7.12502
lthumb 48.6561 66.906
rfemur -32.6833 8.39812 9.34645
rtibia 48.1903
rfoot -17.2435 -7.24193
rtoes -23.7164
lfemur -25.2982 21.2694 -29.6343
ltibia 49.3765
lfoot -31.8347 17.3807
ltoes -8.41272
1502
root 1.92628 16.98 -0.808596 1.17613 -27.1941 3.01049
lowerback 16.549 0.156773 -3.45576
upperback 12.0155 -0.460023 0.249077
thorax 3.61296 -0.557642 2.25884
lowerneck 10.7661 -3.73572 -5.74425
upperneck 0.805624 -5.6678 -0.617558
head -1.42161 -2.80829 1.02483
rclavicle 9.64106e-015 1.64991e-014
rhumerus 19.317 12.1196 -83.3761
rradius 131.888
rwrist 20.6856
rhand 31.4422 -12.2377
rfingers 7.12502
rthumb 54.9987 -30.3774
lclavicle 9.64106e-015 1.64991e-014
lhumerus 28.9631 -23.7048 81.7375
lradius 130.495
lwrist -14.8727
lhand 24.4137 45.0444
lfingers 7.12502
lthumb 48.6223 66.9615
rfemur -32.711 8.38612 9.36626
rtibia 48.2463
rfoot -17.2643 -7.31784
rtoes -23.9456
lfemur -25.3448 21.2377 -29.6194
ltibia 49.4545
lfoot -31.8283 17.3696
ltoes -8.38665
1503
root 1.92058 16.9754 -0.808623 1.16799 -27.1411 3.03855
lowerback 16.5624 0.175702 -3.45933
upperback 12.0302 -0.435792 0.231652
thorax 3.62055 -0.545234 2.23931
lowerneck 10.7008 -3.78636 -5.6982
upperneck 0.852023 -5.72372 -0.629087
head -1.39483 -2.83707 1.01242
rclavicle 4.16454e-014 -4.82053e-014
rhumerus 19.2819 12.0891 -83.393
rradius 131.872
rwrist 20.7627
rhand 31.3735 -12.2232
rfingers 7.12502
rthumb 54.9373 -30.4071
lclavicle 4.16454e-014 -4.82053e-014
lhumerus 29.0186 -23.7831 81.7541
lradius 130.479
lwrist -14.9183
lhand 24.4002 45.0227
lfingers 7.12502
lthumb 48.6099 66.9458
rfemur -32.7335 8.33288 9.36193
rtibia 48.3194
rfoot -17.2581 -7.38158
rtoes -24.0715
lfemur -25.3768 21.2112 -29.6374
ltibia 49.5215
lfoot -31.8695 17.3777
ltoes -8.26788
1504
root 1.9141 16.9717 -0.809565 1.16346 -27.0767 3.00831
lowerback 16.593 0.184554 -3.45347
upperback 12.0516 -0.424836 0.25456
thorax 3.62776 -0.540888 2.25896
lowerneck 10.6601 -3.78917 -5.76466
upperneck 0.868759 -5.73114 -0.590026
head -1.37928 -2.84235 1.03469
rclavicle 1.0138e-014 1.21259e-014
rhumerus 19.273 12.0907 -83.3835
rradius 131.843
rwrist 20.8414
rhand 31.544 -12.0841
rfingers 7.12502
rthumb 55.0894 -30.1579
lclavicle 1.0138e-014 1.21259e-014
lhumerus 29.069 -23.816 81.8123
lradius 130.447
lwrist -14.9537
lhand 24.3784 44.9822
lfingers 7.12502
lthumb 48.5898 66.915
rfemur -32.7345 8.32226 9.41568
rtibia 48.4089
rfoot -17.284 -7.43513
rtoes -24.0541
lfemur -25.3654 21.1597 -29.5775
ltibia 49.5683
lfoot -31.9341 17.2826
ltoes -8.04815
1505
root 1.90644 16.9687 -0.810778 1.13137 -27.0062 3.0367
lowerback 16.6322 0.196594 -3.4789
upperback 12.0414 -0.412956 0.238366
thorax 3.59576 -0.534806 2.25507
lowerneck 10.6786 -3.77711 -5.79269
upperneck 0.911352 -5.71795 -0.566418
head -1.36766 -2.83736 1.04604
rclavicle -5.96354e-016 -4.82053e-014
rhumerus 19.2137 12.0431 -83.4241
rradius 131.796
rwrist 20.8194
rhand 31.6881 -11.9142
rfingers 7.12502
rthumb 55.2179 -29.8941
lclavicle -5.96354e-016 -4.82053e-014
lhumerus 29.0706 -23.8451 81.8283
lradius 130.396
lwrist -14.9295
lhand 24.3302 44.9306
lfingers 7.12502
lthumb 48.5455 66.8848
rfemur -32.7376 8.30157 9.41387
rtibia 48.5049
rfoot -17.3629 -7.46092
rtoes -23.9709
lfemur -25.352 21.1089 -29.5656
ltibia 49.5996
lfoot -32.0281 17.1997
ltoes -7.87069
1506
root 1.89935 16.9669 -0.811699 1.07935 -26.9094 3.12349
lowerback 16.6577 0.209408 -3.57228
upperback 12.0338 -0.407566 0.220254
thorax 3.5756 -0.536256 2.28808
lowerneck 10.6465 -3.77544 -5.72851
upperneck 1.00093 -5.70649 -0.667477
head -1.3374 -2.83146 0.999695
rclavicle 9.33294e-014 -9.64106e-015
rhumerus 19.169 12.0195 -83.4227
rradius 131.763
rwrist 20.7754
rhand 31.691 -11.8781
rfingers 7.12502
rthumb 55.2205 -29.8561
lclavicle 9.33294e-014 -9.64106e-015
lhumerus 29.0658 -23.8123 81.8428
lradius 130.347
lwrist -14.8942
lhand 24.3473 44.9073
lfingers 7.12502
lthumb 48.5613 66.854
rfemur -32.7264 8.23642 9.35217
rtibia 48.5909
rfoot -17.4297 -7.48958
rtoes -24.0213
lfemur -25.3338 21.0616 -29.6176
ltibia 49.6183
lfoot -32.0415 17.1867
ltoes -7.88051
1507
root 1.89285 16.9652 -0.810637 1.05209 -26.8236 3.20918
lowerback 16.5976 0.227269 -3.63433
upperback 12.0517 -0.38813 0.194392
thorax 3.62616 -0.530068 2.29241
lowerneck 10.594 -3.76213 -5.75143
upperneck 1.0824 -5.68556 -0.649218
head -1.30124 -2.82377 1.00516
rclavicle -1.82882e-014 5.26779e-015
rhumerus 19.1411 12.0553 -83.4258
rradius 131.764
rwrist 20.7558
rhand 31.7468 -12.0278
rfingers 7.12502
rthumb 55.2701 -29.9693
lclavicle -1.82882e-014 5.26779e-015
lhumerus 29.0873 -23.7934 81.8452
lradius 130.313
lwrist -14.8829
lhand 24.3759 44.9795
lfingers 7.12502
lthumb 48.5875 66.9135
rfemur -32.7284 8.16935 9.27668
rtibia 48.663
rfoot -17.5385 -7.44293
rtoes -23.6009
lfemur -25.3273 21.0267 -29.6793
ltibia 49.6371
lfoot -32.0501 17.0716
ltoes -7.66526
1508
root 1.88384 16.964 -0.80951 1.08606 -26.7134 3.14799
lowerback 16.5057 0.278983 -3.49756
upperback 12.0854 -0.298677 0.161293
thorax 3.70185 -0.476494 2.16797
lowerneck 10.6465 -3.82411 -5.65049
upperneck 1.04439 -5.75709 -0.581881
head -1.32159 -2.85924 1.01449
rclavicle 9.93923e-017 -2.80286e-014
rhumerus 19.0457 11.9609 -83.4917
rradius 131.719
rwrist 20.8449
rhand 31.7278 -12.0136
rfingers 7.12502
rthumb 55.2532 -29.9675
lclavicle 9.93923e-017 -2.80286e-014
lhumerus 29.1464 -23.9595 81.8269
lradius 130.306
lwrist -14.8241
lhand 24.2973 45.0583
lfingers 7.12502
lthumb 48.5152 67.0271
rfemur -32.7143 8.07396 9.37921
rtibia 48.7218
rfoot -17.5515 -7.49718
rtoes -23.6898
lfemur -25.3282 20.9704 -29.5784
ltibia 49.6677
lfoot -32.0435 16.9719
ltoes -7.3521
1509
root 1.87361 16.9611 -0.810032 1.05612 -26.5837 3.14548
lowerback 16.4881 0.373788 -3.34497
upperback 12.1082 -0.153417 0.066174
thorax 3.72338 -0.389875 1.9628
lowerneck 10.7179 -3.93251 -5.3718
upperneck 0.991564 -5.86975 -0.52615
head -1.35402 -2.91405 0.992639
rclavicle -4.81059e-014 4.54223e-014
rhumerus 18.9046 11.7266 -83.6361
rradius 131.711
rwrist 21.0206
rhand 31.6435 -11.8191
rfingers 7.12502
rthumb 55.1781 -29.8281
lclavicle -4.81059e-014 4.54223e-014
lhumerus 29.2613 -24.232 81.7628
lradius 130.235
lwrist -14.6203
lhand 24.2847 45.2025
lfingers 7.12502
lthumb 48.5036 67.1769
rfemur -32.6685 7.91425 9.44323
rtibia 48.7987
rfoot -17.5657 -7.59801
rtoes -24.0961
lfemur -25.2869 20.8907 -29.5142
ltibia 49.6931
lfoot -32.04 16.9481
ltoes -7.20175
